{"title":"Clocking Off S02","uid":11746365,"size":3889688248,"categoryP":"video","categoryS":"tv_shows","magnet":"?xt=urn:btih:e9700680bce649ef623d2cb2173e1b3fcac2b480&amp;dn=Clocking+Off+S02&amp;tr=udp%3A%2F%2Ftracker.openbittorrent.com%3A80&amp;tr=udp%3A%2F%2Fopen.demonii.com%3A1337&amp;tr=udp%3A%2F%2Ftracker.coppersurfer.tk%3A6969&amp;tr=udp%3A%2F%2Fexodus.desync.com%3A6969","seeders":5,"leechers":0,"uploader":"RedBaron58","files":7,"time":1426035183,"description":"Clocking Off S02 TVrip x264 mp4\n  &lt;a href=&quot;\nhttp://www.imdb.com/title/tt0243183/&quot; rel=&quot;nofollow&quot; target=&quot;_NEW&quot;&gt;\nhttp://www.imdb.com/title/tt0243183/&lt;/a&gt;\n\nTrailer:\n\nOriginal Broadcaster was the BBC, but this transmission is by CBS Drama\n\nThank you for your kind comments and thumbs ups on my other torrents, your feedback is welcome.\n\nUPLOADER NOTE: Episode 3 is from another source from an unknown encoder, and is not of quite the same quality.\n\nAbout the Series:\nInterconnected dramas about the lives of a group of workers at a Manchester textile factory, with \neach episode focusing on the home life of a different character.\n\nStaring Philip Glenister and Lesley Sharp\n\n\nI hope you enjoy.\n\n\nTechnical: (All episodes are encoded to the same settings, Except Episode 3)\n\nGeneral\nComplete name                            : H:Clocking Off S02Clocking Off S02E01 Kev's Story x264 RB58.mp4\nFormat                                   : MPEG-4\nFormat profile                           : Base Media\nCodec ID                                 : isom\nFile size                                : 566 MiB\nDuration                                 : 52mn 2s\nOverall bit rate                         : 1 520 Kbps\nWriting application                      : Lavf54.63.104\n\nVideo\nID                                       : 1\nFormat                                   : AVC\nFormat/Info                              : Advanced Video Codec\nFormat profile                           : &lt;a class=&quot;__cf_email__&quot; href=&quot;/cdn-cgi/l/email-protection&quot; data-cfemail=&quot;074f6e606f474b342937&quot;&gt;[email&amp;#160;protected]&lt;/a&gt;&lt;script cf-hash='f9e31' type=&quot;text/javascript&quot;&gt;\n/* &lt;![CDATA[ */!function(){try{var t=&quot;currentScript&quot;in document?document.currentScript:function(){for(var t=document.getElementsByTagName(&quot;script&quot;),e=t.length;e--;)if(t[e].getAttribute(&quot;cf-hash&quot;))return t[e]}();if(t&amp;&amp;t.previousSibling){var e,r,n,i,c=t.previousSibling,a=c.getAttribute(&quot;data-cfemail&quot;);if(a){for(e=&quot;&quot;,r=parseInt(a.substr(0,2),16),n=2;a.length-n;n+=2)i=parseInt(a.substr(n,2),16)^r,e+=String.fromCharCode(i);e=document.createTextNode(e),c.parentNode.replaceChild(e,c)}}}catch(u){}}();/* ]]&gt; */&lt;/script&gt;\nFormat settings, CABAC                   : Yes\nFormat settings, ReFrames                : 4 frames\nCodec ID                                 : avc1\nCodec ID/Info                            : Advanced Video Coding\nDuration                                 : 52mn 2s\nBit rate                                 : 1 400 Kbps\nWidth                                    : 832 pixels\nHeight                                   : 468 pixels\nDisplay aspect ratio                     : 16:9\nFrame rate mode                          : Constant\nFrame rate                               : 25.000 fps\nColor space                              : YUV\nChroma subsampling                       : 4:2:0\nBit depth                                : 8 bits\nScan type                                : Progressive\nBits/(Pixel*Frame)                       : 0.144\nStream size                              : 521 MiB (92%)\nWriting library                          : x264 core 123 r2189 35cf912\nEncoding settings                        : cabac=1 / ref=3 / deblock=1:0:0\n\nAudio\nID                                       : 2\nFormat                                   : AAC\nFormat/Info                              : Advanced Audio Codec\nFormat profile                           : LC\nCodec ID                                 : 40\nDuration                                 : 52mn 2s\nBit rate mode                            : Constant\nBit rate                                 : 112 Kbps\nChannel(s)                               : 2 channels\nChannel positions                        : Front: L R\nSampling rate                            : 48.0 KHz\nCompression mode                         : Lossy\nStream size                              : 41.8 MiB (7%)\nLanguage                                 : English","torrent":{"xt":"urn:btih:e9700680bce649ef623d2cb2173e1b3fcac2b480","amp;dn":"Clocking+Off+S02","amp;tr":["udp%3A%2F%2Ftracker.openbittorrent.com%3A80","udp%3A%2F%2Fopen.demonii.com%3A1337","udp%3A%2F%2Ftracker.coppersurfer.tk%3A6969","udp%3A%2F%2Fexodus.desync.com%3A6969"],"infoHash":"e9700680bce649ef623d2cb2173e1b3fcac2b480","infoHashBuffer":{"type":"Buffer","data":[233,112,6,128,188,230,73,239,98,61,44,178,23,62,27,63,202,194,180,128]},"announce":[],"urlList":[]}}